<?xml version="1.0" encoding="utf-8"?>
<!-- Generator: Adobe Illustrator 23.0.3, SVG Export Plug-In . SVG Version: 6.00 Build 0)  -->
<svg version="1.1" id="Layer_1" xmlns="http://www.w3.org/2000/svg" xmlns:xlink="http://www.w3.org/1999/xlink" x="0px" y="0px"
	 viewBox="0 0 500 500" style="enable-background:new 0 0 500 500;" xml:space="preserve">
<style type="text/css">
	.st0{fill:#FFFFFF;}
</style>
<g>
	<g>
		<path class="st0" d="M215.73,431.09c-27.72,0-54.79-5.27-80.42-15.63c-26.53-10.78-50.3-26.53-70.72-46.94
			s-36.17-44.19-46.94-70.72C7.29,272.18,2.02,245.17,2.02,217.39s5.27-54.79,15.63-80.42c10.78-26.53,26.53-50.3,46.94-70.72
			s44.19-36.17,70.72-46.94c25.63-10.36,52.63-15.63,80.42-15.63c27.72,0,54.79,5.27,80.42,15.63
			c26.53,10.78,50.3,26.53,70.72,46.94s36.17,44.19,46.94,70.72c10.36,25.63,15.63,52.63,15.63,80.42s-5.27,54.79-15.63,80.42
			c-10.78,26.53-26.53,50.3-46.94,70.72c-20.42,20.42-44.19,36.17-70.72,46.94C270.51,425.82,243.51,431.09,215.73,431.09z
			 M215.73,39.79c-45.51,0-91.02,17.3-125.69,51.97c-69.28,69.28-69.28,182.03,0,251.37c33.59,33.59,78.2,52.03,125.69,52.03
			s92.15-18.5,125.69-52.09c69.28-69.28,69.28-182.03,0-251.37C306.8,57.09,261.23,39.79,215.73,39.79z"/>
		
			<rect x="400.9" y="329.01" transform="matrix(0.7071 -0.7071 0.7071 0.7071 -174.697 419.3638)" class="st0" width="35.93" height="183.11"/>
		<path class="st0" d="M75.79,219.3c-0.24-18.5,3.05-36.53,9.88-53.65c7.07-17.72,17.48-33.59,31.08-47.18
			c26.47-26.47,61.2-41.02,98.92-41.02v35.93c-28.14,0-53.89,10.84-73.53,30.48c-20,20-30.84,46.65-30.42,74.97L75.79,219.3z"/>
	</g>
</g>
</svg>
