<?xml version="1.0" encoding="utf-8"?>
<!-- Generator: Adobe Illustrator 23.0.3, SVG Export Plug-In . SVG Version: 6.00 Build 0)  -->
<svg version="1.1" id="Layer_1" xmlns="http://www.w3.org/2000/svg" xmlns:xlink="http://www.w3.org/1999/xlink" x="0px" y="0px"
	 viewBox="0 0 500 500" style="enable-background:new 0 0 500 500;" xml:space="preserve">
<style type="text/css">
	.st0{fill:#FFFFFF;}
</style>
<g>
	<path class="st0" d="M214.07,401.28v-20.79l24.19-3.82c5.66-0.85,9.26-2.69,10.82-5.52c1.55-2.83,2.33-8.2,2.33-16.13V239.17
		c0-10.46-0.92-17.33-2.76-20.58c-1.84-3.25-6.01-5.3-12.52-6.15l-20.37-2.97l2.97-21.22l67.05-3.4l5.09,2.12v169.75
		c0,7.08,0.92,11.96,2.76,14.64c1.84,2.69,5.44,4.46,10.82,5.3l23.76,4.24v20.37H214.07z M264.99,138.17c-8.21,0-15-2.61-20.37-7.85
		c-5.38-5.23-8.06-11.95-8.06-20.16c0-8.2,2.69-14.99,8.06-20.37c5.37-5.37,12.16-8.06,20.37-8.06c8.49,0,15.42,2.62,20.79,7.85
		c5.37,5.24,8.06,11.96,8.06,20.16c0,8.21-2.69,15-8.06,20.37C280.41,135.49,273.48,138.17,264.99,138.17z"/>
</g>
</svg>
