<?xml version="1.0" encoding="UTF-8" standalone="no"?>
<!-- Generator: Adobe Illustrator 23.0.3, SVG Export Plug-In . SVG Version: 6.00 Build 0)  -->

<svg
   xmlns:dc="http://purl.org/dc/elements/1.1/"
   xmlns:cc="http://creativecommons.org/ns#"
   xmlns:rdf="http://www.w3.org/1999/02/22-rdf-syntax-ns#"
   xmlns:svg="http://www.w3.org/2000/svg"
   xmlns="http://www.w3.org/2000/svg"
   xmlns:sodipodi="http://sodipodi.sourceforge.net/DTD/sodipodi-0.dtd"
   xmlns:inkscape="http://www.inkscape.org/namespaces/inkscape"
   version="1.1"
   id="Layer_1"
   x="0px"
   y="0px"
   viewBox="0 0 500 500"
   style="enable-background:new 0 0 500 500;"
   xml:space="preserve"
   sodipodi:docname="i-04.svg"
   inkscape:version="0.92.4 (f8dce91, 2019-08-02)"><metadata
   id="metadata896"><rdf:RDF><cc:Work
       rdf:about=""><dc:format>image/svg+xml</dc:format><dc:type
         rdf:resource="http://purl.org/dc/dcmitype/StillImage" /><dc:title></dc:title></cc:Work></rdf:RDF></metadata><defs
   id="defs894" /><sodipodi:namedview
   pagecolor="#ffffff"
   bordercolor="#666666"
   borderopacity="1"
   objecttolerance="10"
   gridtolerance="10"
   guidetolerance="10"
   inkscape:pageopacity="0"
   inkscape:pageshadow="2"
   inkscape:window-width="1920"
   inkscape:window-height="1025"
   id="namedview892"
   showgrid="false"
   inkscape:pagecheckerboard="true"
   inkscape:zoom="0.844"
   inkscape:cx="200.89422"
   inkscape:cy="238.80312"
   inkscape:window-x="0"
   inkscape:window-y="27"
   inkscape:window-maximized="1"
   inkscape:current-layer="Layer_1" />
<style
   type="text/css"
   id="style885">
	.st0{fill:#FFFFFF;}
</style>
<g
   id="g889"
   transform="translate(-21.14,8.495)">
	<path
   class="st0"
   d="m 214.07,401.28 v -20.79 l 24.19,-3.82 c 5.66,-0.85 9.26,-2.69 10.82,-5.52 1.55,-2.83 2.33,-8.2 2.33,-16.13 V 239.17 c 0,-10.46 -0.92,-17.33 -2.76,-20.58 -1.84,-3.25 -6.01,-5.3 -12.52,-6.15 l -20.37,-2.97 2.97,-21.22 67.05,-3.4 5.09,2.12 v 169.75 c 0,7.08 0.92,11.96 2.76,14.64 1.84,2.69 5.44,4.46 10.82,5.3 l 23.76,4.24 v 20.37 H 214.07 Z m 50.92,-263.11 c -8.21,0 -15,-2.61 -20.37,-7.85 -5.38,-5.23 -8.06,-11.95 -8.06,-20.16 0,-8.2 2.69,-14.99 8.06,-20.37 5.37,-5.37 12.16,-8.06 20.37,-8.06 8.49,0 15.42,2.62 20.79,7.85 5.37,5.24 8.06,11.96 8.06,20.16 0,8.21 -2.69,15 -8.06,20.37 -5.37,5.38 -12.3,8.06 -20.79,8.06 z"
   id="path887"
   inkscape:connector-curvature="0"
   style="fill:#ffffff" />
</g>
<circle
   style="opacity:1;fill:none;fill-opacity:1;stroke:#ffffff;stroke-width:37.79527559;stroke-miterlimit:4;stroke-dasharray:none;stroke-opacity:1"
   id="path898"
   cx="250"
   cy="250"
   r="232.8199" /></svg>