<?xml version="1.0" encoding="UTF-8" standalone="no"?>
<!-- Created with Inkscape (http://www.inkscape.org/) -->

<svg
   xmlns:dc="http://purl.org/dc/elements/1.1/"
   xmlns:cc="http://creativecommons.org/ns#"
   xmlns:rdf="http://www.w3.org/1999/02/22-rdf-syntax-ns#"
   xmlns:svg="http://www.w3.org/2000/svg"
   xmlns="http://www.w3.org/2000/svg"
   xmlns:sodipodi="http://sodipodi.sourceforge.net/DTD/sodipodi-0.dtd"
   xmlns:inkscape="http://www.inkscape.org/namespaces/inkscape"
   version="1.1"
   id="svg834"
   xml:space="preserve"
   width="377.95334"
   height="151.18134"
   viewBox="0 0 377.95334 151.18134"
   sodipodi:docname="logo_mapa.svg"
   inkscape:version="0.92.4 (f8dce91, 2019-08-02)"><metadata
     id="metadata840"><rdf:RDF><cc:Work
         rdf:about=""><dc:format>image/svg+xml</dc:format><dc:type
           rdf:resource="http://purl.org/dc/dcmitype/StillImage" /><dc:title></dc:title></cc:Work></rdf:RDF></metadata><defs
     id="defs838"><clipPath
       clipPathUnits="userSpaceOnUse"
       id="clipPath850"><path
         d="M 0,0 H 283.465 V 113.386 H 0 Z"
         id="path848"
         inkscape:connector-curvature="0" /></clipPath></defs><sodipodi:namedview
     pagecolor="#ffffff"
     bordercolor="#666666"
     borderopacity="1"
     objecttolerance="10"
     gridtolerance="10"
     guidetolerance="10"
     inkscape:pageopacity="0"
     inkscape:pageshadow="2"
     inkscape:window-width="1920"
     inkscape:window-height="1025"
     id="namedview836"
     showgrid="false"
     inkscape:zoom="3.6962235"
     inkscape:cx="158.32738"
     inkscape:cy="75.590668"
     inkscape:window-x="0"
     inkscape:window-y="27"
     inkscape:window-maximized="1"
     inkscape:current-layer="g842" /><g
     id="g842"
     inkscape:groupmode="layer"
     inkscape:label="logo_mapa"
     transform="matrix(1.3333333,0,0,-1.3333333,0,151.18133)"><g
       id="g844"
       transform="translate(-10.09418)"><g
         id="g846"
         clip-path="url(#clipPath850)"><g
           id="g852"
           transform="translate(22.1346,10.2385)"><path
             d="M 0,0 C 3.227,0 5.59,1.441 7.434,3.227 V 0.461 H 17.461 V 5.648 H 13.716 V 42.645 H 3.631 v -5.302 h 3.803 v -13.6 c -1.441,1.21 -3.803,2.42 -7.031,2.42 -6.8,0 -12.102,-5.878 -12.102,-13.197 C -11.699,5.359 -6.685,0 0,0 m 1.441,5.417 c -3.689,0 -6.685,2.766 -6.685,7.607 0,5.014 3.169,7.722 6.685,7.722 2.362,0 4.322,-0.807 5.993,-1.959 V 7.953 C 5.705,6.454 3.803,5.417 1.441,5.417 m 42.719,5.532 c 0.173,0.865 0.288,2.133 0.288,3.112 0,6.685 -4.207,12.102 -12.275,12.102 C 24.393,26.163 19.38,20.17 19.38,13.024 19.38,5.187 25.085,0 33.326,0 c 3.688,0 6.915,0.749 9.566,2.305 l 0.519,5.648 C 40.472,6.281 37.302,5.302 34.248,5.302 c -4.207,0 -7.434,1.729 -8.299,5.647 z M 32.116,21.092 c 3.688,0 5.935,-2.305 6.051,-5.763 H 25.892 c 0.691,4.149 3.458,5.763 6.224,5.763 M 58.509,0.461 h 14.58 v 5.763 h -4.611 l 2.133,6.224 H 84.787 L 86.92,6.224 H 82.54 V 0.461 h 14.58 v 5.82 h -3.285 l -9.451,26.337 h 4.149 v 5.763 H 67.095 v -5.763 h 4.15 L 61.794,6.281 h -3.285 z m 13.888,17.404 5.302,14.926 5.302,-14.926 z M 113.192,0 c 3.688,0 6.282,0.749 8.99,2.305 l 0.519,5.648 c -3.285,-1.787 -5.936,-2.651 -8.99,-2.651 -4.495,0 -8.183,3.054 -8.183,7.895 0,5.532 3.573,7.895 6.454,7.895 2.478,0 4.034,-1.095 4.495,-1.729 -0.461,-0.519 -0.807,-1.383 -0.807,-2.132 0,-2.075 1.729,-3.804 3.804,-3.804 2.247,0 4.034,1.614 4.034,4.265 0,3.976 -4.553,8.471 -11.468,8.471 -7.492,0 -12.794,-6.281 -12.794,-12.851 C 99.246,5.187 105.24,0 113.192,0 m 25.339,0 c 2.305,0 4.322,0.634 6.051,1.498 l 0.519,5.417 c -1.499,-0.691 -3.343,-1.325 -4.956,-1.325 -1.268,0 -2.19,0.403 -2.651,1.21 -0.288,0.519 -0.404,1.037 -0.404,1.844 V 20.4 h 7.665 v 5.302 h -7.665 v 8.011 l -6.224,-2.709 v -5.302 h -4.898 V 20.4 h 4.898 V 7.434 c 0,-1.614 0.289,-2.939 0.865,-3.976 C 132.999,1.037 135.477,0 138.531,0 m 22.319,0 c 8.241,0 13.427,6.166 13.427,13.082 0,7.03 -5.071,13.081 -13.427,13.081 -8.241,0 -13.428,-6.166 -13.428,-13.081 C 147.422,6.051 152.494,0 160.85,0 m 0,5.244 c -4.092,0 -6.973,3.227 -6.973,7.838 0,4.61 2.881,7.837 6.973,7.837 4.091,0 6.973,-3.227 6.973,-7.837 0,-4.611 -2.882,-7.838 -6.973,-7.838 m 33.741,20.919 c -3.227,0 -5.878,-2.766 -8.01,-6.166 v 5.705 h -9.797 V 20.4 h 3.746 V 5.648 h -3.746 V 0.461 h 14.407 v 5.187 h -4.38 v 9.912 c 1.153,2.19 3.227,4.149 5.014,4.783 0.519,-1.153 1.786,-2.248 3.688,-2.248 2.075,0 3.746,1.787 3.746,3.919 0,2.248 -1.556,4.149 -4.668,4.149 m 30.992,-15.214 c 0.173,0.865 0.289,2.133 0.289,3.112 0,6.685 -4.207,12.102 -12.275,12.102 -7.78,0 -12.794,-5.993 -12.794,-13.139 0,-7.837 5.705,-13.024 13.946,-13.024 3.688,0 6.916,0.749 9.567,2.305 l 0.518,5.648 c -2.939,-1.672 -6.108,-2.651 -9.163,-2.651 -4.207,0 -7.434,1.729 -8.298,5.647 z m -12.044,10.143 c 3.688,0 5.936,-2.305 6.051,-5.763 h -12.275 c 0.692,4.149 3.458,5.763 6.224,5.763 m 36.663,-0.98 c 0,1.211 -0.461,2.305 -1.383,3.228 -1.729,1.728 -5.417,2.881 -8.471,2.881 -7.088,0 -10.316,-4.092 -10.316,-8.01 0,-4.323 2.939,-5.994 9.912,-7.838 3.862,-1.037 4.956,-1.786 4.956,-3.054 0,-1.844 -2.074,-2.709 -4.61,-2.709 -1.786,0 -3.4,0.346 -4.552,0.807 0.057,0.346 0.115,0.692 0.115,1.037 0,2.19 -1.671,3.343 -3.4,3.343 -1.96,0 -3.343,-1.556 -3.343,-3.4 0,-1.326 0.404,-2.363 1.441,-3.4 1.671,-1.672 5.82,-3.055 9.682,-3.055 5.705,0 10.661,2.824 10.661,8.126 0,4.553 -3.516,6.051 -9.566,7.665 -3.862,1.037 -5.302,1.786 -5.302,3.227 0,1.325 1.383,2.593 4.207,2.593 1.267,0 2.535,-0.23 3.573,-0.634 -0.116,-0.346 -0.116,-0.691 -0.116,-1.095 0,-1.902 1.383,-3.112 3.4,-3.112 1.844,0 3.112,1.383 3.112,3.4"
             style="fill:#4c4d77;fill-opacity:1;fill-rule:nonzero;stroke:none"
             id="path854"
             inkscape:connector-curvature="0" /></g><g
           id="g856"
           transform="translate(13.5875,65.1243)"><path
             d="M 0,0 H 10.263 V 21.606 L 19.878,6.914 h 0.216 l 9.668,14.8 V 0 H 40.187 V 37.811 H 29.114 L 20.094,23.172 11.073,37.811 H 0 Z m 42.753,0 h 11.019 l 2.701,6.752 H 71.057 L 73.811,0 H 85.047 L 68.95,38.081 H 58.849 Z m 16.798,14.908 4.268,10.749 4.213,-10.749 z M 87.612,0 h 10.479 v 10.803 h 5.185 c 9.399,0 16.259,4.699 16.259,13.612 v 0.108 c 0,8.372 -6.158,13.288 -15.718,13.288 H 87.612 Z m 10.479,19.013 v 9.993 h 4.915 c 3.781,0 6.05,-1.728 6.05,-4.969 v -0.108 c 0,-2.971 -2.269,-4.916 -5.996,-4.916 z M 116.904,0 h 11.019 l 2.701,6.752 h 14.584 L 147.963,0 h 11.235 L 143.101,38.081 H 133 Z m 16.799,14.908 4.267,10.749 4.213,-10.749 z"
             style="fill:#ef304c;fill-opacity:1;fill-rule:nonzero;stroke:none"
             id="path858"
             inkscape:connector-curvature="0" /></g></g></g></g></svg>