<?xml version="1.0" encoding="utf-8"?>
<!-- Generator: Adobe Illustrator 23.0.3, SVG Export Plug-In . SVG Version: 6.00 Build 0)  -->
<svg version="1.1" id="Layer_1" xmlns="http://www.w3.org/2000/svg" xmlns:xlink="http://www.w3.org/1999/xlink" x="0px" y="0px"
	 viewBox="0 0 500 500" style="enable-background:new 0 0 500 500;" xml:space="preserve">
<style type="text/css">
	.st0{fill:#FFFFFF;}
</style>
<g>
	<g>
		<circle class="st0" cx="250.78" cy="249.12" r="17.28"/>
	</g>
	<g>
		<circle class="st0" cx="250.78" cy="95.59" r="17.28"/>
	</g>
	<g>
		<circle class="st0" cx="250.78" cy="19.87" r="17.28"/>
	</g>
	<g>
		<circle class="st0" cx="186.17" cy="56.68" r="17.28"/>
	</g>
	<g>
		<circle class="st0" cx="314.97" cy="57.42" r="17.28"/>
	</g>
	<g>
		<circle class="st0" cx="116.45" cy="172.23" r="17.28"/>
	</g>
	<g>
		<circle class="st0" cx="62.91" cy="118.69" r="17.28"/>
	</g>
	<g>
		<circle class="st0" cx="43.26" cy="190.4" r="17.28"/>
	</g>
	<g>
		<circle class="st0" cx="134.85" cy="99.85" r="17.28"/>
	</g>
	<g>
		<circle class="st0" cx="117.82" cy="325.89" r="17.28"/>
	</g>
	<g>
		<circle class="st0" cx="64.28" cy="379.43" r="17.28"/>
	</g>
	<g>
		<circle class="st0" cx="135.99" cy="399.08" r="17.28"/>
	</g>
	<g>
		<circle class="st0" cx="45.45" cy="307.49" r="17.28"/>
	</g>
	<g>
		<circle class="st0" cx="250.78" cy="402.65" r="17.28"/>
	</g>
	<g>
		<circle class="st0" cx="383.75" cy="325.89" r="17.28"/>
	</g>
	<g>
		<circle class="st0" cx="383.75" cy="172.35" r="17.28"/>
	</g>
	<g>
		<rect x="249.2" y="92.41" class="st0" width="3.17" height="313.43"/>
	</g>
	<g>
		
			<rect x="250.44" y="93.53" transform="matrix(0.496 -0.8683 0.8683 0.496 -89.7595 344.6813)" class="st0" width="3.17" height="312.25"/>
	</g>
	<g>
		<polygon class="st0" points="118.62,327.25 117.02,324.52 388.1,166.66 389.7,169.39 		"/>
	</g>
	<g>
		<rect x="249" y="13.82" class="st0" width="3.17" height="80.18"/>
	</g>
	<g>
		
			<rect x="245.56" y="73.68" transform="matrix(0.8658 -0.5003 0.5003 0.8658 0.3083 151.6826)" class="st0" width="74.83" height="3.17"/>
	</g>
	<g>
		<polygon class="st0" points="249.78,95.36 185.35,57.2 186.96,54.47 251.39,92.63 		"/>
	</g>
	<g>
		<circle class="st0" cx="250.59" cy="479.96" r="17.28"/>
	</g>
	<g>
		<circle class="st0" cx="315.19" cy="443.15" r="17.28"/>
	</g>
	<g>
		<circle class="st0" cx="186.4" cy="442.42" r="17.28"/>
	</g>
	<g>
		<rect x="249.2" y="405.83" class="st0" width="3.17" height="80.18"/>
	</g>
	<g>
		
			<rect x="180.98" y="422.98" transform="matrix(0.8658 -0.5003 0.5003 0.8658 -183.1259 166.2375)" class="st0" width="74.83" height="3.17"/>
	</g>
	<g>
		<polygon class="st0" points="314.4,445.36 249.98,407.2 251.59,404.47 316.01,442.63 		"/>
	</g>
	<g>
		<polygon class="st0" points="117.99,172.61 114.92,171.84 133.59,97.43 136.66,98.2 		"/>
	</g>
	<g>
		
			<rect x="87.85" y="106.57" transform="matrix(0.7104 -0.7038 0.7038 0.7104 -76.1164 104.9158)" class="st0" width="3.17" height="76.77"/>
	</g>
	<g>
		
			<rect x="41.57" y="179.23" transform="matrix(0.974 -0.2264 0.2264 0.974 -38.8774 22.6979)" class="st0" width="75.87" height="3.17"/>
	</g>
	<g>
		<circle class="st0" cx="437.06" cy="379.38" r="17.28"/>
	</g>
	<g>
		<circle class="st0" cx="456.71" cy="307.66" r="17.28"/>
	</g>
	<g>
		<circle class="st0" cx="365.12" cy="398.21" r="17.28"/>
	</g>
	<g>
		<polygon class="st0" points="366.38,400.63 363.31,399.86 381.98,325.45 385.05,326.22 		"/>
	</g>
	<g>
		
			<rect x="408.94" y="314.72" transform="matrix(0.7104 -0.7038 0.7038 0.7104 -129.6286 391.1548)" class="st0" width="3.17" height="76.77"/>
	</g>
	<g>
		
			<rect x="382.53" y="315.66" transform="matrix(0.974 -0.2264 0.2264 0.974 -60.9125 103.444)" class="st0" width="75.87" height="3.17"/>
	</g>
	<g>
		
			<rect x="79.59" y="278.02" transform="matrix(0.2609 -0.9654 0.9654 0.2609 -245.0462 311.9149)" class="st0" width="3.17" height="75.92"/>
	</g>
	<g>
		
			<rect x="53.4" y="351.01" transform="matrix(0.7178 -0.6963 0.6963 0.7178 -219.5612 163.5082)" class="st0" width="77.04" height="3.16"/>
	</g>
	<g>
		
			<rect x="126.49" y="324.77" transform="matrix(0.9727 -0.2322 0.2322 0.9727 -80.4266 39.6191)" class="st0" width="3.17" height="73.31"/>
	</g>
	<g>
		<circle class="st0" cx="436.91" cy="119.28" r="17.28"/>
	</g>
	<g>
		<circle class="st0" cx="365.19" cy="99.62" r="17.28"/>
	</g>
	<g>
		<circle class="st0" cx="455.74" cy="191.21" r="17.28"/>
	</g>
	<g>
		
			<rect x="418.43" y="144.76" transform="matrix(0.2609 -0.9654 0.9654 0.2609 134.055 540.5272)" class="st0" width="3.17" height="75.92"/>
	</g>
	<g>
		
			<rect x="370.75" y="144.52" transform="matrix(0.7178 -0.6963 0.6963 0.7178 13.7741 326.195)" class="st0" width="77.04" height="3.16"/>
	</g>
	<g>
		
			<rect x="371.53" y="100.63" transform="matrix(0.9727 -0.2322 0.2322 0.9727 -21.6799 90.3994)" class="st0" width="3.17" height="73.31"/>
	</g>
</g>
</svg>
